<?xml version="1.0" standalone="no"?>
<!DOCTYPE svg PUBLIC "-//W3C//DTD SVG 20010904//EN"
 "http://www.w3.org/TR/2001/REC-SVG-20010904/DTD/svg10.dtd">
<svg version="1.0" xmlns="http://www.w3.org/2000/svg"
 width="200.000000pt" height="200.000000pt" viewBox="0 0 200.000000 200.000000"
 preserveAspectRatio="xMidYMid meet">
<metadata>
Created by potrace 1.11, written by Peter Selinger 2001-2013
</metadata>
<g transform="translate(0.000000,200.000000) scale(0.100000,-0.100000)"
fill="#000000" stroke="none">
<path d="M895 1858 c-192 -71 -377 -101 -467 -76 l-26 8 -96 -288 c-53 -158
-96 -294 -96 -302 0 -8 43 -124 97 -256 l96 -242 299 -299 298 -298 298 298
299 299 96 242 c54 132 97 248 97 256 0 8 -43 144 -96 302 l-96 288 -26 -8
c-15 -4 -65 -6 -112 -6 -93 2 -189 23 -348 79 -56 19 -109 34 -119 34 -10 -1
-54 -15 -98 -31z m-213 -318 l140 -110 182 0 183 0 142 111 c78 61 145 109
148 105 3 -3 -1 -98 -11 -210 l-17 -204 26 -149 c14 -81 28 -158 30 -170 4
-18 -13 -33 -120 -100 l-125 -78 -46 -146 -46 -146 -61 -47 c-84 -64 -121 -64
-204 0 l-60 46 -47 147 -47 146 -125 79 c-117 73 -125 80 -119 105 3 14 16 91
30 170 l25 143 -15 180 c-16 195 -18 238 -9 238 3 0 69 -49 146 -110z"/>
<path d="M555 1568 c6 -57 25 -282 25 -303 0 -10 33 9 103 61 56 42 106 80
110 84 5 4 -43 47 -105 97 -148 117 -139 112 -133 61z"/>
<path d="M1331 1514 c-68 -53 -119 -100 -114 -104 4 -4 54 -42 111 -84 100
-75 102 -76 102 -49 1 15 7 96 14 178 8 83 13 151 11 153 -1 1 -57 -41 -124
-94z"/>
<path d="M840 1388 c0 -13 11 -84 25 -158 14 -74 25 -136 25 -137 0 -7 101
-53 115 -53 14 0 115 46 115 53 0 1 11 65 25 141 14 77 25 148 25 158 0 17
-13 18 -165 18 -164 0 -165 0 -165 -22z"/>
<path d="M696 1309 l-108 -81 38 -38 c32 -32 55 -43 134 -64 52 -14 96 -23 98
-21 6 6 -39 268 -48 278 -3 4 -55 -29 -114 -74z"/>
<path d="M1197 1383 c-8 -14 -50 -273 -45 -278 2 -3 47 7 99 22 76 21 101 33
133 63 l38 38 -98 74 c-117 88 -121 91 -127 81z"/>
<path d="M577 1184 c-11 -37 -48 -257 -43 -261 4 -4 156 56 170 68 14 12 -44
131 -85 173 -32 34 -38 36 -42 20z"/>
<path d="M1388 1162 c-38 -39 -95 -160 -81 -172 13 -11 165 -72 169 -67 5 4
-41 265 -48 272 -2 3 -20 -12 -40 -33z"/>
<path d="M709 1058 c27 -59 32 -64 92 -90 35 -15 69 -27 75 -28 22 0 25 32 7
68 -15 30 -32 41 -107 74 -49 21 -91 38 -92 38 -2 0 10 -28 25 -62z"/>
<path d="M1224 1077 c-83 -35 -92 -42 -102 -74 -11 -35 -7 -63 9 -63 5 0 38
12 75 27 63 26 68 30 90 82 14 30 23 57 22 61 -2 3 -44 -11 -94 -33z"/>
<path d="M877 1062 c7 -4 19 -24 28 -45 12 -29 15 -81 15 -259 0 -123 4 -218
9 -212 8 9 65 463 59 469 -8 7 -108 55 -115 55 -4 0 -3 -4 4 -8z"/>
<path d="M1075 1043 c-27 -14 -52 -27 -54 -29 -2 -1 10 -108 25 -236 l29 -233
6 110 c4 61 7 158 8 216 1 110 13 165 39 187 25 20 1 13 -53 -15z"/>
<path d="M630 934 c-47 -20 -86 -37 -88 -39 -1 -1 45 -32 104 -69 86 -54 110
-65 119 -54 6 7 32 43 58 79 l46 66 -65 26 c-35 15 -70 27 -77 27 -6 -1 -50
-17 -97 -36z"/>
<path d="M1203 943 l-62 -26 46 -66 c72 -103 57 -101 169 -30 55 34 102 65
107 69 8 7 -163 80 -185 79 -7 0 -41 -12 -75 -26z"/>
<path d="M889 888 c0 -18 -6 -119 -12 -225 -11 -181 -11 -191 6 -182 15 9 17
30 17 224 0 118 -2 215 -5 215 -3 0 -5 -15 -6 -32z"/>
<path d="M987 780 c-10 -80 -21 -162 -24 -182 l-6 -38 47 0 47 0 -7 48 c-3 26
-13 108 -23 182 l-17 135 -17 -145z"/>
<path d="M1114 706 c1 -177 4 -220 15 -224 11 -4 12 21 6 149 -13 278 -22 310
-21 75z"/>
<path d="M1154 694 c5 -96 11 -173 13 -170 2 2 19 52 37 110 l34 106 -40 57
c-22 32 -43 61 -47 65 -3 4 -2 -72 3 -168z"/>
<path d="M813 800 l-41 -59 30 -98 c16 -54 33 -102 38 -106 4 -5 11 64 15 153
4 89 5 163 3 166 -2 2 -23 -23 -45 -56z"/>
<path d="M986 500 c18 -30 21 -30 45 13 8 15 5 17 -26 17 l-36 0 17 -30z"/>
<path d="M937 507 c-3 -9 0 -20 6 -25 40 -30 48 -22 18 17 -15 19 -19 21 -24
8z"/>
<path d="M1046 495 c-22 -33 -16 -41 13 -18 13 12 18 23 12 31 -6 10 -12 7
-25 -13z"/>
<path d="M893 463 c-20 -8 -15 -20 16 -42 25 -18 33 -19 55 -10 14 7 26 15 26
18 -1 6 -73 42 -81 40 -2 0 -10 -3 -16 -6z"/>
<path d="M1053 451 c-39 -19 -40 -24 -7 -40 22 -9 30 -8 55 10 33 23 36 34 13
43 -19 7 -22 7 -61 -13z"/>
<path d="M982 396 c-28 -15 -18 -26 24 -26 41 0 51 14 21 27 -17 8 -29 7 -45
-1z"/>
</g>
</svg>
